<svg version="1.1" id="Layer_1" xmlns="http://www.w3.org/2000/svg" xmlns:xlink="http://www.w3.org/1999/xlink" x="0px" y="0px"
	 width="100%" viewBox="0 0 800 800" enable-background="new 0 0 800 800" xml:space="preserve">
<path fill="#000000" opacity="1.000000" stroke="none" 
	d="
M366.000000,801.000000 
	C244.000000,801.000000 122.500000,801.000000 1.000000,801.000000 
	C1.000000,534.333313 1.000000,267.666656 1.000000,1.000000 
	C267.666656,1.000000 534.333313,1.000000 801.000000,1.000000 
	C801.000000,267.666656 801.000000,534.333313 801.000000,801.000000 
	C656.166687,801.000000 511.333344,801.000000 366.000000,801.000000 
M111.997490,424.443207 
	C125.414772,513.379883 204.171112,562.383789 269.000671,560.571777 
	C269.000671,542.672546 269.000671,524.768188 269.000671,506.866486 
	C205.423248,506.221741 162.724701,449.669067 164.649750,398.592072 
	C165.514481,375.648254 172.504333,355.164276 186.517471,337.215454 
	C207.384003,310.488495 235.001434,296.499481 269.234772,295.380463 
	C269.234772,286.024200 269.234772,277.041321 269.234772,268.058411 
	C269.234772,259.133484 269.234772,250.208557 269.234772,241.302368 
	C183.640945,240.343399 97.763626,316.759949 111.997490,424.443207 
M269.234772,404.500122 
	C269.234772,384.452118 269.234772,364.404083 269.234772,344.349976 
	C240.287323,344.969574 211.839508,369.941589 214.988007,405.374969 
	C217.380844,432.304169 243.911652,456.895691 269.234772,454.818726 
	C269.234772,438.403137 269.234772,421.951660 269.234772,404.500122 
M578.536133,454.004578 
	C581.965332,454.004578 585.394531,454.004578 588.999512,454.004578 
	C588.999512,444.421478 588.907593,435.448822 589.031311,426.479126 
	C589.116089,420.334076 592.608032,417.315491 598.612305,417.831818 
	C603.415283,418.244812 605.935608,421.138062 605.989502,426.699768 
	C606.077515,435.772430 606.013306,444.846558 606.013306,453.657715 
	C612.470154,453.657715 618.213196,453.657715 623.998047,453.657715 
	C623.998047,442.994476 624.178711,432.674011 623.952393,422.362457 
	C623.667664,409.391754 614.710144,401.284668 601.955566,402.054688 
	C595.254761,402.459229 590.290222,406.081879 585.942322,411.115723 
	C582.106628,405.535706 577.059875,402.729218 570.769714,402.075470 
	C564.363098,401.409607 559.037170,403.955627 554.135071,408.321838 
	C553.952148,406.004242 553.824646,404.389191 553.695068,402.747803 
	C547.688049,402.747803 541.933167,402.747803 536.208008,402.747803 
	C536.208008,419.942627 536.208008,436.843201 536.208008,453.718079 
	C542.220520,453.718079 547.953064,453.718079 553.954651,453.718079 
	C553.954651,444.471527 553.873047,435.507935 553.982788,426.546692 
	C554.058411,420.370758 557.457947,417.365448 563.477112,417.819977 
	C568.277466,418.182465 570.874451,421.070740 570.941467,426.604614 
	C571.051453,435.683929 570.971252,444.765564 570.971252,454.004578 
	C573.591553,454.004578 575.573914,454.004578 578.536133,454.004578 
M400.091492,454.719086 
	C400.091492,452.620605 400.091492,450.522125 400.091492,448.129608 
	C412.231354,457.335968 424.743073,456.292267 432.085358,445.816101 
	C438.655609,436.441528 438.925079,420.715729 432.534027,411.283752 
	C427.446167,403.775085 420.126709,400.594086 411.366333,402.310089 
	C407.397888,403.087463 403.812805,405.821869 400.192322,407.600464 
	C400.108154,406.333923 399.989105,404.542053 399.869446,402.741333 
	C393.887939,402.741333 388.121216,402.741333 382.337646,402.741333 
	C382.337646,428.107452 382.337646,453.179626 382.337646,478.400269 
	C388.341858,478.400269 394.076141,478.400269 400.091492,478.400269 
	C400.091492,470.627136 400.091492,463.146790 400.091492,454.719086 
M315.812408,399.325470 
	C303.624664,414.343048 305.251068,435.280365 319.523895,447.104156 
	C333.524261,458.702240 354.969574,456.778107 366.602753,442.880066 
	C377.634979,429.699982 376.407562,408.793610 363.914429,397.088043 
	C350.582581,384.596771 329.960480,385.327484 315.812408,399.325470 
M362.422607,330.324768 
	C356.957947,330.410065 351.999695,329.800934 347.354156,335.080109 
	C342.058563,341.098083 331.104156,338.391296 328.274567,330.740540 
	C326.540161,326.050995 326.523651,320.370392 327.086945,315.284546 
	C327.676239,309.964264 331.552734,306.403076 337.018341,305.398590 
	C342.344727,304.419647 346.819611,306.037964 350.255127,310.442444 
	C351.063599,311.478912 352.499451,312.614655 353.689911,312.664093 
	C359.296112,312.897003 364.917358,312.767822 370.597198,312.767822 
	C367.751495,296.187927 353.384491,286.880981 334.458405,288.997681 
	C317.744507,290.867004 307.065918,304.991486 307.883789,324.147736 
	C308.640594,341.872498 321.204956,354.018677 339.170166,354.392609 
	C355.713715,354.737000 369.158081,344.460205 370.348572,330.324799 
	C368.005798,330.324799 365.682770,330.324799 362.422607,330.324768 
M489.952423,454.295868 
	C496.562469,454.887238 502.242798,452.778534 507.275452,447.417175 
	C507.455109,450.136688 507.572083,451.907440 507.696381,453.789124 
	C513.744995,453.789124 519.494446,453.789124 525.700500,453.789124 
	C525.700500,445.123627 525.700500,436.672394 525.700500,428.221130 
	C525.700500,419.786255 525.700500,411.351379 525.700500,402.739929 
	C519.401611,402.739929 513.674377,402.739929 507.502960,402.739929 
	C507.502960,404.659119 507.512207,406.286499 507.501434,407.913788 
	C507.449738,415.738251 507.611359,423.572479 507.261475,431.383728 
	C507.023773,436.691040 503.816010,439.504547 499.031921,439.525879 
	C494.254272,439.547150 491.228729,436.763428 490.638916,431.477844 
	C490.344879,428.842590 490.431274,426.160156 490.421570,423.498810 
	C490.396332,416.566956 490.413086,409.634949 490.413086,402.734283 
	C484.139008,402.734283 478.554352,402.734283 473.020752,402.734283 
	C473.020752,414.802704 472.479553,426.612793 473.197540,438.345825 
	C473.740234,447.214264 480.218506,452.837463 489.952423,454.295868 
M464.876282,317.169739 
	C469.558502,318.780090 470.989563,322.404663 470.981964,326.954895 
	C470.967010,335.889435 470.977539,344.824036 470.977539,353.728790 
	C477.265259,353.728790 483.003723,353.728790 488.900574,353.728790 
	C488.900574,342.649689 489.308777,331.825745 488.793182,321.045990 
	C488.201202,308.669586 479.374420,300.721344 467.789551,302.270355 
	C463.002380,302.910461 458.508789,305.745911 454.062988,307.510895 
	C453.984558,306.546600 453.829498,304.640564 453.679596,302.797546 
	C447.622742,302.797546 441.884338,302.797546 436.263977,302.797546 
	C436.263977,320.044769 436.263977,336.947601 436.263977,353.657104 
	C442.338501,353.657104 448.076904,353.657104 453.948212,353.657104 
	C453.948212,344.490143 453.886444,335.669373 453.967621,326.849915 
	C454.033356,319.708710 456.818848,317.089294 464.876282,317.169739 
M420.014618,348.558563 
	C423.648163,345.270050 426.428375,341.503265 427.222076,336.102264 
	C421.860657,336.102264 416.878662,335.925232 411.921478,336.198334 
	C410.189209,336.293793 408.572968,337.742554 406.806274,338.139954 
	C404.074677,338.754395 400.885040,339.978668 398.590698,339.104401 
	C396.531708,338.319885 395.418060,335.054474 393.183014,331.884460 
	C405.982727,331.884460 416.942261,331.884460 427.831696,331.884460 
	C430.860352,319.600616 423.822906,306.696838 411.917786,303.260895 
	C401.774780,300.333527 391.890900,301.197876 383.940674,308.880707 
	C375.951904,316.600739 374.940033,326.504242 377.687988,336.664551 
	C382.440857,354.237793 403.229889,360.246185 420.014618,348.558563 
M648.401855,322.163849 
	C650.528809,322.163849 652.655823,322.163849 654.855286,322.163849 
	C652.309082,308.072571 641.107422,300.402496 626.040222,302.060883 
	C612.374512,303.565002 603.699585,314.303894 603.992981,329.353760 
	C604.278259,343.988678 613.754028,353.673309 628.736145,354.642365 
	C642.047546,355.503357 653.014954,347.015350 654.749817,334.327087 
	C653.777100,334.268921 652.815247,334.165405 651.853027,334.161774 
	C647.359070,334.144775 642.856445,334.004822 638.376892,334.259705 
	C637.227600,334.325073 635.925415,335.473328 635.079712,336.456421 
	C631.262451,340.893890 624.817932,340.034454 623.419128,334.344269 
	C622.469055,330.479309 622.459534,326.006744 623.403442,322.141449 
	C624.797974,316.430725 631.040894,315.629272 635.066467,319.973816 
	C636.105347,321.095032 637.913025,321.869659 639.462402,322.070190 
	C642.081726,322.409271 644.776611,322.163635 648.401855,322.163849 
M501.808746,296.425842 
	C501.808746,298.334625 501.808746,300.243439 501.808746,302.191498 
	C499.319366,302.403931 497.543884,302.555420 495.685547,302.713989 
	C495.685547,307.715881 495.685547,312.408875 495.685547,317.152344 
	C497.817200,317.369507 499.599884,317.551117 501.947937,317.790314 
	C501.947937,324.547455 501.710297,331.180573 502.013672,337.788879 
	C502.326721,344.607727 505.246979,350.395203 512.122131,352.319885 
	C517.530396,353.833923 523.362305,353.834991 528.922913,354.498199 
	C528.922913,348.544128 528.922913,343.782562 528.922913,338.704742 
	C526.991577,338.704742 525.124512,339.189911 523.750488,338.574432 
	C522.240479,337.898010 520.194336,336.277344 520.101746,334.948212 
	C519.701294,329.203522 519.930359,323.414978 519.930359,317.295532 
	C523.274048,317.295532 526.057556,317.295532 528.790771,317.295532 
	C528.790771,312.195404 528.790771,307.468140 528.790771,302.334106 
	C525.706848,302.334106 522.963806,302.334106 519.761475,302.334106 
	C519.761475,298.019653 519.761475,294.108582 519.761475,290.265564 
	C513.527832,290.265564 507.772736,290.265564 501.808746,290.265564 
	C501.808746,292.181274 501.808746,293.825714 501.808746,296.425842 
M548.436157,354.009766 
	C550.721008,354.009766 553.005920,354.009766 555.746460,354.009766 
	C555.746460,346.291840 555.655273,339.013947 555.772217,331.739380 
	C555.888550,324.507599 558.367859,321.909454 565.580444,321.271667 
	C567.692078,321.084930 569.834167,321.242950 572.028564,321.242950 
	C572.028564,314.595245 572.028564,308.492096 572.028564,302.164795 
	C565.235901,301.979401 560.650024,305.938477 555.916321,310.533630 
	C555.770325,307.519287 555.660156,305.246674 555.537598,302.717163 
	C549.573486,302.717163 543.851990,302.717163 537.915283,302.717163 
	C537.915283,319.868073 537.915283,336.775665 537.915283,354.009766 
	C541.202271,354.009766 544.338562,354.009766 548.436157,354.009766 
M596.669434,353.100891 
	C596.669434,336.367615 596.669434,319.634338 596.669434,302.755249 
	C590.449768,302.755249 584.741455,302.755249 578.922852,302.755249 
	C578.922852,319.971558 578.922852,336.869568 578.922852,353.823181 
	C584.789246,353.823181 590.428162,353.823181 596.669434,353.100891 
M444.694794,450.146851 
	C444.808136,451.388672 444.921478,452.630524 445.012512,453.628235 
	C451.125732,453.628235 456.847321,453.628235 462.524139,453.628235 
	C462.524139,436.500275 462.524139,419.758545 462.524139,402.728271 
	C456.587311,402.728271 450.867798,402.728271 444.694885,402.728271 
	C444.694885,418.354889 444.694885,433.784729 444.694794,450.146851 
M448.892365,380.050354 
	C443.626740,383.422485 441.951508,387.403198 443.890289,391.936310 
	C445.921021,396.684418 451.602386,398.874786 457.394043,397.142487 
	C462.231476,395.695618 464.728760,391.869293 464.024841,386.982819 
	C463.165924,381.020660 457.214966,378.065399 448.892365,380.050354 
M591.432678,297.132477 
	C596.167358,295.628204 598.510498,292.429108 598.037659,287.441406 
	C597.577698,282.588654 594.335999,280.269928 589.954041,279.309845 
	C585.390564,278.310028 580.308350,280.461517 578.291565,284.050415 
	C575.524414,288.974701 577.839172,295.238678 583.379272,296.898254 
	C585.646729,297.577515 588.226562,297.213928 591.432678,297.132477 
M382.116577,531.435486 
	C382.116577,529.154053 382.116577,526.872620 382.116577,524.388550 
	C383.754639,525.010376 385.256500,526.170593 386.466339,525.920044 
	C389.195618,525.355225 393.145874,524.800537 394.105835,522.948975 
	C395.566223,520.132141 395.858948,515.894897 394.825806,512.886536 
	C394.136017,510.877808 390.417908,509.242554 387.806122,508.743896 
	C385.075256,508.222565 382.046448,509.261932 378.786987,509.663544 
	C378.749664,510.401337 378.631470,511.690857 378.627991,512.980713 
	C378.609314,519.913696 378.619202,526.846680 378.619202,535.225464 
	C380.405609,533.743164 381.259308,533.034790 382.116577,531.435486 
M326.664703,509.658264 
	C323.179932,504.566498 318.631958,502.796173 313.468933,504.521667 
	C308.424957,506.207458 305.553284,510.635071 305.950104,516.114380 
	C306.298096,520.919373 309.847687,525.031311 314.454041,525.965332 
	C319.933075,527.076355 324.049805,525.061096 327.157715,518.771667 
	C324.528748,519.988708 322.786804,520.555786 321.310760,521.526978 
	C317.948547,523.739136 313.701569,523.502747 311.466736,520.432617 
	C308.961060,516.990540 308.938599,513.210510 311.461639,509.766602 
	C313.746307,506.648193 317.851837,506.481140 321.316040,508.641602 
	C322.819427,509.579224 324.770691,509.798615 326.664703,509.658264 
M548.835815,518.851624 
	C549.377319,517.589294 550.518921,516.241089 550.352844,515.079956 
	C549.748169,510.853058 546.171997,508.276886 541.812073,508.473633 
	C537.479492,508.669189 534.342957,511.553650 533.812988,515.829956 
	C533.221558,520.601929 535.375488,524.579346 539.251282,525.872253 
	C543.736450,527.368469 547.371216,525.747375 550.271118,520.093018 
	C547.240845,521.321838 545.125732,522.795349 542.964355,522.866638 
	C541.142883,522.926758 539.267578,521.357849 537.416138,520.510071 
	C537.639771,519.960266 537.863403,519.410461 538.087036,518.860657 
	C541.381409,518.860657 544.675842,518.860657 548.835815,518.851624 
M622.118408,517.770020 
	C623.291138,514.939453 624.463867,512.108887 626.039795,508.305145 
	C618.650696,509.960419 620.773865,517.330627 617.196411,520.147339 
	C613.433472,517.016785 615.984619,509.659821 608.696350,508.576752 
	C610.074402,517.374084 618.785034,524.535217 612.156982,534.218445 
	C614.178833,533.517700 615.756348,532.625305 616.407043,531.283508 
	C618.428040,527.115479 620.097168,522.776855 622.118408,517.770020 
M429.780182,526.187195 
	C435.962158,525.804138 439.262695,522.968445 439.510315,517.827454 
	C439.738098,513.099060 436.762054,509.362335 432.198608,508.646729 
	C427.359955,507.888000 423.011719,510.760315 422.076416,515.333130 
	C421.029083,520.453857 423.480347,524.242554 429.780182,526.187195 
M358.808228,514.643372 
	C356.537842,508.785309 356.537842,508.785309 353.047363,509.593109 
	C354.630646,517.550110 362.899719,524.607239 355.290771,534.108948 
	C357.396942,533.903564 359.253967,534.137756 359.478149,533.638611 
	C363.099884,525.574402 366.514160,517.416992 369.975433,509.280670 
	C363.047607,510.395844 364.808746,517.319214 361.137665,520.808167 
	C360.448608,519.041931 359.733337,517.208496 358.808228,514.643372 
M560.671753,508.864105 
	C560.297302,514.524902 559.922791,520.185669 559.548279,525.846436 
	C560.123291,526.073181 560.698303,526.299866 561.273315,526.526550 
	C561.982422,525.530273 563.163208,524.596619 563.305481,523.525085 
	C563.631409,521.070923 562.896484,518.362549 563.654358,516.115723 
	C564.236328,514.390442 566.440063,513.212219 567.922546,511.790680 
	C569.276428,513.331360 571.428101,514.699768 571.806274,516.451111 
	C572.451599,519.440125 571.984131,522.669373 571.984131,525.797729 
	C572.383972,526.040955 572.783813,526.284119 573.183655,526.527344 
	C574.033386,525.620483 575.523743,524.772278 575.612976,523.795898 
	C575.883667,520.835999 575.871277,517.793152 575.493286,514.843628 
	C574.859619,509.898865 571.565674,507.891693 566.565430,508.784698 
	C564.928345,509.077087 563.192932,508.818970 560.671753,508.864105 
M482.207336,522.890015 
	C478.304779,523.589417 476.639923,521.666199 476.540955,517.994446 
	C476.482849,515.839722 476.800873,513.627930 476.398987,511.548279 
	C476.183105,510.431091 474.803619,509.538788 473.949158,508.545044 
	C472.682495,526.514465 473.456512,527.303772 488.838562,525.407471 
	C488.838562,520.812744 489.001648,516.173523 488.718781,511.561707 
	C488.651794,510.469299 487.087830,509.468750 486.247925,508.468231 
	C484.990662,513.890930 483.986572,518.221558 482.207336,522.890015 
M593.381714,526.210022 
	C597.016968,526.114136 599.589233,524.599487 601.161316,519.837524 
	C598.855103,520.835571 597.518555,521.779846 596.092224,521.944092 
	C594.039185,522.180481 590.328796,522.352783 590.113220,521.671082 
	C589.295654,519.085022 589.146912,516.032104 589.793945,513.412170 
	C589.962463,512.730042 593.936829,512.752563 596.135803,512.889709 
	C597.611450,512.981750 599.038940,513.845764 601.400757,514.691101 
	C598.740540,508.767395 594.950256,507.720093 590.518494,508.940094 
	C585.952515,510.197021 584.435486,513.800232 584.773071,518.229309 
	C585.140076,523.045044 587.705383,525.846741 593.381714,526.210022 
M450.783722,524.700623 
	C457.046295,527.664001 460.823975,526.536804 463.401764,520.458618 
	C458.975433,520.467896 451.587616,527.937073 451.351410,517.590454 
	C451.103455,506.730164 458.992462,514.401733 463.636230,513.499329 
	C462.026703,511.481201 460.363556,509.613556 458.308594,508.938477 
	C454.515076,507.692200 450.910095,508.648132 448.797272,512.341980 
	C446.398010,516.536560 446.772034,520.616272 450.783722,524.700623 
M404.054443,510.563141 
	C404.717133,513.903381 405.715698,517.219666 405.955811,520.589966 
	C406.243256,524.624573 408.129608,526.332275 411.976562,525.982056 
	C412.686981,525.917358 413.327240,525.082214 413.999908,524.602722 
	C413.548920,524.063538 413.081116,523.046265 412.649628,523.061401 
	C409.390747,523.176147 409.936646,520.879333 409.904877,518.958496 
	C409.869415,516.814270 409.896759,514.669067 409.896759,512.685608 
	C411.408173,511.865265 412.693176,511.167816 413.978180,510.470367 
	C412.892517,509.856628 411.799896,509.254639 410.726318,508.620422 
	C410.476501,508.472839 410.241455,508.247772 410.085022,508.003662 
	C409.323639,506.815216 408.591248,505.608154 407.848602,504.407715 
	C407.179260,505.672455 406.589050,506.989014 405.808350,508.180817 
	C405.394287,508.812866 404.649414,509.228241 404.054443,510.563141 
M499.189606,514.763550 
	C499.189880,517.577881 498.946289,520.423950 499.306335,523.191467 
	C499.457550,524.353516 500.886108,525.349365 501.733978,526.420776 
	C502.156158,526.123535 502.578308,525.826294 503.000488,525.529053 
	C503.000488,523.563782 502.985107,521.598450 503.003906,519.633362 
	C503.035156,516.375427 502.279968,512.743774 507.177429,512.002747 
	C507.667999,511.928467 507.879028,510.006866 508.073822,509.398438 
	C504.787323,509.398438 502.086029,509.398438 499.189606,509.398438 
	C499.189606,510.926147 499.189606,512.395874 499.189606,514.763550 
M340.385468,517.647156 
	C342.097626,514.826111 343.809753,512.005005 345.432648,509.331024 
	C342.329620,509.331024 339.773346,509.331024 337.122070,509.331024 
	C337.122070,514.770935 337.122070,520.321167 337.122070,527.276550 
	C338.754761,525.640442 340.061310,524.936951 340.267334,523.993286 
	C340.646790,522.255127 340.379456,520.375732 340.385468,517.647156 
M523.969666,508.799835 
	C521.756653,508.919159 519.543640,509.038483 517.231201,509.163177 
	C517.231201,514.727539 517.231201,520.289612 517.231201,525.770020 
	C521.477478,526.940430 520.573608,524.060303 520.855896,521.853455 
	C521.325012,518.184631 518.666016,513.007996 525.241516,512.045349 
	C525.046387,510.919525 524.851196,509.793732 523.969666,508.799835 
z"/>
<path fill="#FEFEFE" opacity="1.000000" stroke="none" 
	d="
M111.967056,423.999786 
	C97.763626,316.759949 183.640945,240.343399 269.234772,241.302368 
	C269.234772,250.208557 269.234772,259.133484 269.234772,268.058411 
	C269.234772,277.041321 269.234772,286.024200 269.234772,295.380463 
	C235.001434,296.499481 207.384003,310.488495 186.517471,337.215454 
	C172.504333,355.164276 165.514481,375.648254 164.649750,398.592072 
	C162.724701,449.669067 205.423248,506.221741 269.000671,506.866486 
	C269.000671,524.768188 269.000671,542.672546 269.000671,560.571777 
	C204.171112,562.383789 125.414772,513.379883 111.967056,423.999786 
z"/>
<path fill="#FEFEFE" opacity="1.000000" stroke="none" 
	d="
M269.234772,405.000153 
	C269.234772,421.951660 269.234772,438.403137 269.234772,454.818726 
	C243.911652,456.895691 217.380844,432.304169 214.988007,405.374969 
	C211.839508,369.941589 240.287323,344.969574 269.234772,344.349976 
	C269.234772,364.404083 269.234772,384.452118 269.234772,405.000153 
z"/>
<path fill="#FCFCFC" opacity="1.000000" stroke="none" 
	d="
M578.046204,454.004578 
	C575.573914,454.004578 573.591553,454.004578 570.971252,454.004578 
	C570.971252,444.765564 571.051453,435.683929 570.941467,426.604614 
	C570.874451,421.070740 568.277466,418.182465 563.477112,417.819977 
	C557.457947,417.365448 554.058411,420.370758 553.982788,426.546692 
	C553.873047,435.507935 553.954651,444.471527 553.954651,453.718079 
	C547.953064,453.718079 542.220520,453.718079 536.208008,453.718079 
	C536.208008,436.843201 536.208008,419.942627 536.208008,402.747803 
	C541.933167,402.747803 547.688049,402.747803 553.695068,402.747803 
	C553.824646,404.389191 553.952148,406.004242 554.135071,408.321838 
	C559.037170,403.955627 564.363098,401.409607 570.769714,402.075470 
	C577.059875,402.729218 582.106628,405.535706 585.942322,411.115723 
	C590.290222,406.081879 595.254761,402.459229 601.955566,402.054688 
	C614.710144,401.284668 623.667664,409.391754 623.952393,422.362457 
	C624.178711,432.674011 623.998047,442.994476 623.998047,453.657715 
	C618.213196,453.657715 612.470154,453.657715 606.013306,453.657715 
	C606.013306,444.846558 606.077515,435.772430 605.989502,426.699768 
	C605.935608,421.138062 603.415283,418.244812 598.612305,417.831818 
	C592.608032,417.315491 589.116089,420.334076 589.031311,426.479126 
	C588.907593,435.448822 588.999512,444.421478 588.999512,454.004578 
	C585.394531,454.004578 581.965332,454.004578 578.046204,454.004578 
z"/>
<path fill="#FBFBFB" opacity="1.000000" stroke="none" 
	d="
M400.091492,455.192749 
	C400.091492,463.146790 400.091492,470.627136 400.091492,478.400269 
	C394.076141,478.400269 388.341858,478.400269 382.337646,478.400269 
	C382.337646,453.179626 382.337646,428.107452 382.337646,402.741333 
	C388.121216,402.741333 393.887939,402.741333 399.869446,402.741333 
	C399.989105,404.542053 400.108154,406.333923 400.192322,407.600464 
	C403.812805,405.821869 407.397888,403.087463 411.366333,402.310089 
	C420.126709,400.594086 427.446167,403.775085 432.534027,411.283752 
	C438.925079,420.715729 438.655609,436.441528 432.085358,445.816101 
	C424.743073,456.292267 412.231354,457.335968 400.091492,448.129608 
	C400.091492,450.522125 400.091492,452.620605 400.091492,455.192749 
M403.749237,436.885803 
	C407.588654,439.676819 411.479553,439.763245 415.228088,436.833405 
	C418.756744,434.075287 419.914062,428.293854 418.046875,423.543610 
	C416.551270,419.738739 413.728729,417.723236 409.635132,417.666077 
	C405.534882,417.608795 402.545685,419.544373 401.080627,423.327332 
	C399.271759,427.998077 399.727478,432.466949 403.749237,436.885803 
z"/>
<path fill="#FCFCFC" opacity="1.000000" stroke="none" 
	d="
M316.041016,399.050903 
	C329.960480,385.327484 350.582581,384.596771 363.914429,397.088043 
	C376.407562,408.793610 377.634979,429.699982 366.602753,442.880066 
	C354.969574,456.778107 333.524261,458.702240 319.523895,447.104156 
	C305.251068,435.280365 303.624664,414.343048 316.041016,399.050903 
M334.841980,405.914215 
	C327.343842,409.993134 324.406860,417.526062 326.742401,426.688385 
	C328.951965,435.356506 336.322540,439.726807 344.931885,437.473572 
	C353.344574,435.271820 357.551300,426.501434 355.141357,416.188324 
	C353.003326,407.038788 346.066193,403.295532 334.841980,405.914215 
z"/>
<path fill="#FBFBFB" opacity="1.000000" stroke="none" 
	d="
M362.891174,330.324768 
	C365.682770,330.324799 368.005798,330.324799 370.348572,330.324799 
	C369.158081,344.460205 355.713715,354.737000 339.170166,354.392609 
	C321.204956,354.018677 308.640594,341.872498 307.883789,324.147736 
	C307.065918,304.991486 317.744507,290.867004 334.458405,288.997681 
	C353.384491,286.880981 367.751495,296.187927 370.597198,312.767822 
	C364.917358,312.767822 359.296112,312.897003 353.689911,312.664093 
	C352.499451,312.614655 351.063599,311.478912 350.255127,310.442444 
	C346.819611,306.037964 342.344727,304.419647 337.018341,305.398590 
	C331.552734,306.403076 327.676239,309.964264 327.086945,315.284546 
	C326.523651,320.370392 326.540161,326.050995 328.274567,330.740540 
	C331.104156,338.391296 342.058563,341.098083 347.354156,335.080109 
	C351.999695,329.800934 356.957947,330.410065 362.891174,330.324768 
z"/>
<path fill="#F9F9F9" opacity="1.000000" stroke="none" 
	d="
M489.548157,454.254578 
	C480.218506,452.837463 473.740234,447.214264 473.197540,438.345825 
	C472.479553,426.612793 473.020752,414.802704 473.020752,402.734283 
	C478.554352,402.734283 484.139008,402.734283 490.413086,402.734283 
	C490.413086,409.634949 490.396332,416.566956 490.421570,423.498810 
	C490.431274,426.160156 490.344879,428.842590 490.638916,431.477844 
	C491.228729,436.763428 494.254272,439.547150 499.031921,439.525879 
	C503.816010,439.504547 507.023773,436.691040 507.261475,431.383728 
	C507.611359,423.572479 507.449738,415.738251 507.501434,407.913788 
	C507.512207,406.286499 507.502960,404.659119 507.502960,402.739929 
	C513.674377,402.739929 519.401611,402.739929 525.700500,402.739929 
	C525.700500,411.351379 525.700500,419.786255 525.700500,428.221130 
	C525.700500,436.672394 525.700500,445.123627 525.700500,453.789124 
	C519.494446,453.789124 513.744995,453.789124 507.696381,453.789124 
	C507.572083,451.907440 507.455109,450.136688 507.275452,447.417175 
	C502.242798,452.778534 496.562469,454.887238 489.548157,454.254578 
z"/>
<path fill="#FCFCFC" opacity="1.000000" stroke="none" 
	d="
M464.479065,317.109558 
	C456.818848,317.089294 454.033356,319.708710 453.967621,326.849915 
	C453.886444,335.669373 453.948212,344.490143 453.948212,353.657104 
	C448.076904,353.657104 442.338501,353.657104 436.263977,353.657104 
	C436.263977,336.947601 436.263977,320.044769 436.263977,302.797546 
	C441.884338,302.797546 447.622742,302.797546 453.679596,302.797546 
	C453.829498,304.640564 453.984558,306.546600 454.062988,307.510895 
	C458.508789,305.745911 463.002380,302.910461 467.789551,302.270355 
	C479.374420,300.721344 488.201202,308.669586 488.793182,321.045990 
	C489.308777,331.825745 488.900574,342.649689 488.900574,353.728790 
	C483.003723,353.728790 477.265259,353.728790 470.977539,353.728790 
	C470.977539,344.824036 470.967010,335.889435 470.981964,326.954895 
	C470.989563,322.404663 469.558502,318.780090 464.479065,317.109558 
z"/>
<path fill="#FAFAFA" opacity="1.000000" stroke="none" 
	d="
M419.737946,348.789307 
	C403.229889,360.246185 382.440857,354.237793 377.687988,336.664551 
	C374.940033,326.504242 375.951904,316.600739 383.940674,308.880707 
	C391.890900,301.197876 401.774780,300.333527 411.917786,303.260895 
	C423.822906,306.696838 430.860352,319.600616 427.831696,331.884460 
	C416.942261,331.884460 405.982727,331.884460 393.183014,331.884460 
	C395.418060,335.054474 396.531708,338.319885 398.590698,339.104401 
	C400.885040,339.978668 404.074677,338.754395 406.806274,338.139954 
	C408.572968,337.742554 410.189209,336.293793 411.921478,336.198334 
	C416.878662,335.925232 421.860657,336.102264 427.222076,336.102264 
	C426.428375,341.503265 423.648163,345.270050 419.737946,348.789307 
M403.434906,323.083710 
	C405.561035,323.083710 407.687134,323.083710 410.144165,323.083710 
	C409.617676,318.026428 406.651672,316.120087 402.450409,316.125153 
	C398.219177,316.130219 395.388184,318.209351 394.831360,322.743347 
	C395.399506,322.895905 395.712311,323.049194 396.027008,323.053223 
	C398.178619,323.080902 400.330597,323.077271 403.434906,323.083710 
z"/>
<path fill="#FBFBFB" opacity="1.000000" stroke="none" 
	d="
M647.920776,322.163849 
	C644.776611,322.163635 642.081726,322.409271 639.462402,322.070190 
	C637.913025,321.869659 636.105347,321.095032 635.066467,319.973816 
	C631.040894,315.629272 624.797974,316.430725 623.403442,322.141449 
	C622.459534,326.006744 622.469055,330.479309 623.419128,334.344269 
	C624.817932,340.034454 631.262451,340.893890 635.079712,336.456421 
	C635.925415,335.473328 637.227600,334.325073 638.376892,334.259705 
	C642.856445,334.004822 647.359070,334.144775 651.853027,334.161774 
	C652.815247,334.165405 653.777100,334.268921 654.749817,334.327087 
	C653.014954,347.015350 642.047546,355.503357 628.736145,354.642365 
	C613.754028,353.673309 604.278259,343.988678 603.992981,329.353760 
	C603.699585,314.303894 612.374512,303.565002 626.040222,302.060883 
	C641.107422,300.402496 652.309082,308.072571 654.855286,322.163849 
	C652.655823,322.163849 650.528809,322.163849 647.920776,322.163849 
z"/>
<path fill="#FBFBFB" opacity="1.000000" stroke="none" 
	d="
M501.808746,295.947998 
	C501.808746,293.825714 501.808746,292.181274 501.808746,290.265564 
	C507.772736,290.265564 513.527832,290.265564 519.761475,290.265564 
	C519.761475,294.108582 519.761475,298.019653 519.761475,302.334106 
	C522.963806,302.334106 525.706848,302.334106 528.790771,302.334106 
	C528.790771,307.468140 528.790771,312.195404 528.790771,317.295532 
	C526.057556,317.295532 523.274048,317.295532 519.930359,317.295532 
	C519.930359,323.414978 519.701294,329.203522 520.101746,334.948212 
	C520.194336,336.277344 522.240479,337.898010 523.750488,338.574432 
	C525.124512,339.189911 526.991577,338.704742 528.922913,338.704742 
	C528.922913,343.782562 528.922913,348.544128 528.922913,354.498199 
	C523.362305,353.834991 517.530396,353.833923 512.122131,352.319885 
	C505.246979,350.395203 502.326721,344.607727 502.013672,337.788879 
	C501.710297,331.180573 501.947937,324.547455 501.947937,317.790314 
	C499.599884,317.551117 497.817200,317.369507 495.685547,317.152344 
	C495.685547,312.408875 495.685547,307.715881 495.685547,302.713989 
	C497.543884,302.555420 499.319366,302.403931 501.808746,302.191498 
	C501.808746,300.243439 501.808746,298.334625 501.808746,295.947998 
z"/>
<path fill="#FAFAFA" opacity="1.000000" stroke="none" 
	d="
M547.955566,354.009766 
	C544.338562,354.009766 541.202271,354.009766 537.915283,354.009766 
	C537.915283,336.775665 537.915283,319.868073 537.915283,302.717163 
	C543.851990,302.717163 549.573486,302.717163 555.537598,302.717163 
	C555.660156,305.246674 555.770325,307.519287 555.916321,310.533630 
	C560.650024,305.938477 565.235901,301.979401 572.028564,302.164795 
	C572.028564,308.492096 572.028564,314.595245 572.028564,321.242950 
	C569.834167,321.242950 567.692078,321.084930 565.580444,321.271667 
	C558.367859,321.909454 555.888550,324.507599 555.772217,331.739380 
	C555.655273,339.013947 555.746460,346.291840 555.746460,354.009766 
	C553.005920,354.009766 550.721008,354.009766 547.955566,354.009766 
z"/>
<path fill="#F8F8F8" opacity="1.000000" stroke="none" 
	d="
M596.368286,353.462036 
	C590.428162,353.823181 584.789246,353.823181 578.922852,353.823181 
	C578.922852,336.869568 578.922852,319.971558 578.922852,302.755249 
	C584.741455,302.755249 590.449768,302.755249 596.669434,302.755249 
	C596.669434,319.634338 596.669434,336.367615 596.368286,353.462036 
z"/>
<path fill="#F8F8F8" opacity="1.000000" stroke="none" 
	d="
M444.694824,449.680695 
	C444.694885,433.784729 444.694885,418.354889 444.694885,402.728271 
	C450.867798,402.728271 456.587311,402.728271 462.524139,402.728271 
	C462.524139,419.758545 462.524139,436.500275 462.524139,453.628235 
	C456.847321,453.628235 451.125732,453.628235 445.012512,453.628235 
	C444.921478,452.630524 444.808136,451.388672 444.694824,449.680695 
z"/>
<path fill="#F8F8F8" opacity="1.000000" stroke="none" 
	d="
M449.271423,379.947449 
	C457.214966,378.065399 463.165924,381.020660 464.024841,386.982819 
	C464.728760,391.869293 462.231476,395.695618 457.394043,397.142487 
	C451.602386,398.874786 445.921021,396.684418 443.890289,391.936310 
	C441.951508,387.403198 443.626740,383.422485 449.271423,379.947449 
z"/>
<path fill="#F8F8F8" opacity="1.000000" stroke="none" 
	d="
M591.048462,297.228607 
	C588.226562,297.213928 585.646729,297.577515 583.379272,296.898254 
	C577.839172,295.238678 575.524414,288.974701 578.291565,284.050415 
	C580.308350,280.461517 585.390564,278.310028 589.954041,279.309845 
	C594.335999,280.269928 597.577698,282.588654 598.037659,287.441406 
	C598.510498,292.429108 596.167358,295.628204 591.048462,297.228607 
z"/>
<path fill="#F4F4F4" opacity="1.000000" stroke="none" 
	d="
M382.114807,531.880981 
	C381.259308,533.034790 380.405609,533.743164 378.619202,535.225464 
	C378.619202,526.846680 378.609314,519.913696 378.627991,512.980713 
	C378.631470,511.690857 378.749664,510.401337 378.786987,509.663544 
	C382.046448,509.261932 385.075256,508.222565 387.806122,508.743896 
	C390.417908,509.242554 394.136017,510.877808 394.825806,512.886536 
	C395.858948,515.894897 395.566223,520.132141 394.105835,522.948975 
	C393.145874,524.800537 389.195618,525.355225 386.466339,525.920044 
	C385.256500,526.170593 383.754639,525.010376 382.116577,524.388550 
	C382.116577,526.872620 382.116577,529.154053 382.114807,531.880981 
M391.554199,513.829590 
	C387.722900,510.976166 384.185425,511.040253 383.094604,514.522400 
	C382.432983,516.634521 383.025391,519.703064 384.221375,521.610046 
	C384.878876,522.658447 389.270508,522.974548 389.695374,522.261108 
	C391.032776,520.015442 391.289764,517.126404 391.554199,513.829590 
z"/>
<path fill="#EBEBEB" opacity="1.000000" stroke="none" 
	d="
M326.591614,510.001221 
	C324.770691,509.798615 322.819427,509.579224 321.316040,508.641602 
	C317.851837,506.481140 313.746307,506.648193 311.461639,509.766602 
	C308.938599,513.210510 308.961060,516.990540 311.466736,520.432617 
	C313.701569,523.502747 317.948547,523.739136 321.310760,521.526978 
	C322.786804,520.555786 324.528748,519.988708 327.157715,518.771667 
	C324.049805,525.061096 319.933075,527.076355 314.454041,525.965332 
	C309.847687,525.031311 306.298096,520.919373 305.950104,516.114380 
	C305.553284,510.635071 308.424957,506.207458 313.468933,504.521667 
	C318.631958,502.796173 323.179932,504.566498 326.591614,510.001221 
z"/>
<path fill="#EBEBEB" opacity="1.000000" stroke="none" 
	d="
M548.403015,518.856140 
	C544.675842,518.860657 541.381409,518.860657 538.087036,518.860657 
	C537.863403,519.410461 537.639771,519.960266 537.416138,520.510071 
	C539.267578,521.357849 541.142883,522.926758 542.964355,522.866638 
	C545.125732,522.795349 547.240845,521.321838 550.271118,520.093018 
	C547.371216,525.747375 543.736450,527.368469 539.251282,525.872253 
	C535.375488,524.579346 533.221558,520.601929 533.812988,515.829956 
	C534.342957,511.553650 537.479492,508.669189 541.812073,508.473633 
	C546.171997,508.276886 549.748169,510.853058 550.352844,515.079956 
	C550.518921,516.241089 549.377319,517.589294 548.403015,518.856140 
M540.629883,515.885071 
	C542.641968,515.885071 544.654053,515.885071 547.011536,515.885071 
	C544.582703,511.572601 541.272461,510.484131 538.978333,512.802979 
	C537.783936,514.010254 536.522583,515.614136 540.629883,515.885071 
z"/>
<path fill="#EBEBEB" opacity="1.000000" stroke="none" 
	d="
M622.010620,518.137207 
	C620.097168,522.776855 618.428040,527.115479 616.407043,531.283508 
	C615.756348,532.625305 614.178833,533.517700 612.156982,534.218445 
	C618.785034,524.535217 610.074402,517.374084 608.696350,508.576752 
	C615.984619,509.659821 613.433472,517.016785 617.196411,520.147339 
	C620.773865,517.330627 618.650696,509.960419 626.039795,508.305145 
	C624.463867,512.108887 623.291138,514.939453 622.010620,518.137207 
z"/>
<path fill="#EEEEEE" opacity="1.000000" stroke="none" 
	d="
M429.417816,526.153564 
	C423.480347,524.242554 421.029083,520.453857 422.076416,515.333130 
	C423.011719,510.760315 427.359955,507.888000 432.198608,508.646729 
	C436.762054,509.362335 439.738098,513.099060 439.510315,517.827454 
	C439.262695,522.968445 435.962158,525.804138 429.417816,526.153564 
M431.265350,523.029053 
	C432.388977,522.388794 434.334259,521.896973 434.481781,521.080383 
	C434.919189,518.659058 435.307129,515.822449 434.392578,513.724304 
	C433.889008,512.569153 429.988800,511.537415 428.938049,512.290039 
	C427.286469,513.473145 425.772003,516.338501 426.023743,518.251404 
	C426.256653,520.020996 428.885223,521.475281 431.265350,523.029053 
z"/>
<path fill="#EEEEEE" opacity="1.000000" stroke="none" 
	d="
M358.913147,515.009216 
	C359.733337,517.208496 360.448608,519.041931 361.137665,520.808167 
	C364.808746,517.319214 363.047607,510.395844 369.975433,509.280670 
	C366.514160,517.416992 363.099884,525.574402 359.478149,533.638611 
	C359.253967,534.137756 357.396942,533.903564 355.290771,534.108948 
	C362.899719,524.607239 354.630646,517.550110 353.047363,509.593109 
	C356.537842,508.785309 356.537842,508.785309 358.913147,515.009216 
z"/>
<path fill="#EEEEEE" opacity="1.000000" stroke="none" 
	d="
M561.087158,508.838379 
	C563.192932,508.818970 564.928345,509.077087 566.565430,508.784698 
	C571.565674,507.891693 574.859619,509.898865 575.493286,514.843628 
	C575.871277,517.793152 575.883667,520.835999 575.612976,523.795898 
	C575.523743,524.772278 574.033386,525.620483 573.183655,526.527344 
	C572.783813,526.284119 572.383972,526.040955 571.984131,525.797729 
	C571.984131,522.669373 572.451599,519.440125 571.806274,516.451111 
	C571.428101,514.699768 569.276428,513.331360 567.922546,511.790680 
	C566.440063,513.212219 564.236328,514.390442 563.654358,516.115723 
	C562.896484,518.362549 563.631409,521.070923 563.305481,523.525085 
	C563.163208,524.596619 561.982422,525.530273 561.273315,526.526550 
	C560.698303,526.299866 560.123291,526.073181 559.548279,525.846436 
	C559.922791,520.185669 560.297302,514.524902 561.087158,508.838379 
z"/>
<path fill="#EEEEEE" opacity="1.000000" stroke="none" 
	d="
M482.594910,522.721069 
	C483.986572,518.221558 484.990662,513.890930 486.247925,508.468231 
	C487.087830,509.468750 488.651794,510.469299 488.718781,511.561707 
	C489.001648,516.173523 488.838562,520.812744 488.838562,525.407471 
	C473.456512,527.303772 472.682495,526.514465 473.949158,508.545044 
	C474.803619,509.538788 476.183105,510.431091 476.398987,511.548279 
	C476.800873,513.627930 476.482849,515.839722 476.540955,517.994446 
	C476.639923,521.666199 478.304779,523.589417 482.594910,522.721069 
z"/>
<path fill="#EEEEEE" opacity="1.000000" stroke="none" 
	d="
M593.020264,526.209351 
	C587.705383,525.846741 585.140076,523.045044 584.773071,518.229309 
	C584.435486,513.800232 585.952515,510.197021 590.518494,508.940094 
	C594.950256,507.720093 598.740540,508.767395 601.400757,514.691101 
	C599.038940,513.845764 597.611450,512.981750 596.135803,512.889709 
	C593.936829,512.752563 589.962463,512.730042 589.793945,513.412170 
	C589.146912,516.032104 589.295654,519.085022 590.113220,521.671082 
	C590.328796,522.352783 594.039185,522.180481 596.092224,521.944092 
	C597.518555,521.779846 598.855103,520.835571 601.161316,519.837524 
	C599.589233,524.599487 597.016968,526.114136 593.020264,526.209351 
z"/>
<path fill="#EBEBEB" opacity="1.000000" stroke="none" 
	d="
M450.509033,524.456055 
	C446.772034,520.616272 446.398010,516.536560 448.797272,512.341980 
	C450.910095,508.648132 454.515076,507.692200 458.308594,508.938477 
	C460.363556,509.613556 462.026703,511.481201 463.636230,513.499329 
	C458.992462,514.401733 451.103455,506.730164 451.351410,517.590454 
	C451.587616,527.937073 458.975433,520.467896 463.401764,520.458618 
	C460.823975,526.536804 457.046295,527.664001 450.509033,524.456055 
z"/>
<path fill="#E8E8E8" opacity="1.000000" stroke="none" 
	d="
M404.054138,510.152283 
	C404.649414,509.228241 405.394287,508.812866 405.808350,508.180817 
	C406.589050,506.989014 407.179260,505.672455 407.848602,504.407715 
	C408.591248,505.608154 409.323639,506.815216 410.085022,508.003662 
	C410.241455,508.247772 410.476501,508.472839 410.726318,508.620422 
	C411.799896,509.254639 412.892517,509.856628 413.978180,510.470367 
	C412.693176,511.167816 411.408173,511.865265 409.896759,512.685608 
	C409.896759,514.669067 409.869415,516.814270 409.904877,518.958496 
	C409.936646,520.879333 409.390747,523.176147 412.649628,523.061401 
	C413.081116,523.046265 413.548920,524.063538 413.999878,524.602661 
	C413.327240,525.082214 412.686981,525.917358 411.976562,525.982056 
	C408.129608,526.332275 406.243256,524.624573 405.955811,520.589966 
	C405.715698,517.219666 404.717133,513.903381 404.054138,510.152283 
z"/>
<path fill="#E8E8E8" opacity="1.000000" stroke="none" 
	d="
M499.189606,514.314575 
	C499.189606,512.395874 499.189606,510.926147 499.189606,509.398438 
	C502.086029,509.398438 504.787323,509.398438 508.073822,509.398438 
	C507.879028,510.006866 507.667999,511.928467 507.177429,512.002747 
	C502.279968,512.743774 503.035156,516.375427 503.003906,519.633362 
	C502.985107,521.598450 503.000488,523.563782 503.000488,525.529053 
	C502.578308,525.826294 502.156158,526.123535 501.733978,526.420776 
	C500.886108,525.349365 499.457550,524.353516 499.306335,523.191467 
	C498.946289,520.423950 499.189880,517.577881 499.189606,514.314575 
z"/>
<path fill="#F4F4F4" opacity="1.000000" stroke="none" 
	d="
M340.383575,518.101196 
	C340.379456,520.375732 340.646790,522.255127 340.267334,523.993286 
	C340.061310,524.936951 338.754761,525.640442 337.122070,527.276550 
	C337.122070,520.321167 337.122070,514.770935 337.122070,509.331024 
	C339.773346,509.331024 342.329620,509.331024 345.432648,509.331024 
	C343.809753,512.005005 342.097626,514.826111 340.383575,518.101196 
z"/>
<path fill="#E8E8E8" opacity="1.000000" stroke="none" 
	d="
M524.312866,508.733887 
	C524.851196,509.793732 525.046387,510.919525 525.241516,512.045349 
	C518.666016,513.007996 521.325012,518.184631 520.855896,521.853455 
	C520.573608,524.060303 521.477478,526.940430 517.231201,525.770020 
	C517.231201,520.289612 517.231201,514.727539 517.231201,509.163177 
	C519.543640,509.038483 521.756653,508.919159 524.312866,508.733887 
z"/>
<path fill="#070707" opacity="1.000000" stroke="none" 
	d="
M403.459717,436.631042 
	C399.727478,432.466949 399.271759,427.998077 401.080627,423.327332 
	C402.545685,419.544373 405.534882,417.608795 409.635132,417.666077 
	C413.728729,417.723236 416.551270,419.738739 418.046875,423.543610 
	C419.914062,428.293854 418.756744,434.075287 415.228088,436.833405 
	C411.479553,439.763245 407.588654,439.676819 403.459717,436.631042 
z"/>
<path fill="#040404" opacity="1.000000" stroke="none" 
	d="
M335.224304,405.780823 
	C346.066193,403.295532 353.003326,407.038788 355.141357,416.188324 
	C357.551300,426.501434 353.344574,435.271820 344.931885,437.473572 
	C336.322540,439.726807 328.951965,435.356506 326.742401,426.688385 
	C324.406860,417.526062 327.343842,409.993134 335.224304,405.780823 
z"/>
<path fill="#070707" opacity="1.000000" stroke="none" 
	d="
M402.958679,323.083710 
	C400.330597,323.077271 398.178619,323.080902 396.027008,323.053223 
	C395.712311,323.049194 395.399506,322.895905 394.831360,322.743347 
	C395.388184,318.209351 398.219177,316.130219 402.450409,316.125153 
	C406.651672,316.120087 409.617676,318.026428 410.144165,323.083710 
	C407.687134,323.083710 405.561035,323.083710 402.958679,323.083710 
z"/>
<path fill="#0B0B0B" opacity="1.000000" stroke="none" 
	d="
M391.759583,514.157959 
	C391.289764,517.126404 391.032776,520.015442 389.695374,522.261108 
	C389.270508,522.974548 384.878876,522.658447 384.221375,521.610046 
	C383.025391,519.703064 382.432983,516.634521 383.094604,514.522400 
	C384.185425,511.040253 387.722900,510.976166 391.759583,514.157959 
z"/>
<path fill="#0B0B0B" opacity="1.000000" stroke="none" 
	d="
M540.192139,515.883911 
	C536.522583,515.614136 537.783936,514.010254 538.978333,512.802979 
	C541.272461,510.484131 544.582703,511.572601 547.011536,515.885071 
	C544.654053,515.885071 542.641968,515.885071 540.192139,515.883911 
z"/>
<path fill="#0B0B0B" opacity="1.000000" stroke="none" 
	d="
M430.862061,523.048706 
	C428.885223,521.475281 426.256653,520.020996 426.023743,518.251404 
	C425.772003,516.338501 427.286469,513.473145 428.938049,512.290039 
	C429.988800,511.537415 433.889008,512.569153 434.392578,513.724304 
	C435.307129,515.822449 434.919189,518.659058 434.481781,521.080383 
	C434.334259,521.896973 432.388977,522.388794 430.862061,523.048706 
z"/>
</svg>